<svg width="194" height="237" xmlns="http://www.w3.org/2000/svg" xmlns:xlink="http://www.w3.org/1999/xlink" xml:space="preserve" overflow="hidden"><defs><clipPath id="clip0"><rect x="15" y="465" width="194" height="237"/></clipPath></defs><g clip-path="url(#clip0)" transform="translate(-15 -465)"><path d="M133.347 188.871 132.455 187.087 128.887 179.506 128.664 179.506 127.995 179.506 127.549 179.506 127.103 179.506 126.657 179.506 126.211 179.506 125.989 179.506 125.766 179.506C125.543 179.506 125.543 179.506 125.32 179.283L125.097 179.283 124.874 179.283C124.651 179.283 124.651 179.283 124.428 179.06L123.982 178.837C123.759 178.837 123.759 178.614 123.536 178.614L123.313 178.391 122.867 178.168C122.644 177.945 122.421 177.945 122.421 177.722L122.644 177.276C122.421 177.053 122.198 176.83 121.975 176.384L121.752 175.938 121.529 175.715C121.529 175.492 121.306 175.492 121.306 175.269 121.306 175.046 121.083 174.823 121.083 174.823L120.86 174.377C120.637 173.931 120.414 173.485 120.414 173.039L120.191 172.593C119.522 170.809 119.076 168.579 118.63 165.903 117.069 154.531 120.414 149.625 122.421 148.956 122.867 148.733 123.536 148.733 124.428 148.51 125.543 143.382 126.211 140.26 126.657 138.922L126.88 138.476 127.103 137.807C128.664 132.901 129.556 128.441 129.556 124.874 129.556 113.278 122.644 100.568 97.446 100.568 72.2483 100.568 65.3356 113.501 65.3356 124.874 65.3356 128.441 66.2276 133.347 68.0115 138.476L68.0115 138.699C68.0115 138.922 68.2345 139.368 68.2345 139.814L68.6805 142.044 70.0184 148.733C70.9103 148.733 71.5793 148.956 72.0253 149.179 74.0322 149.848 77.377 154.754 75.8161 166.126 74.2552 177.276 70.0184 179.729 65.7816 179.952L65.3356 179.952 65.1126 179.952C64.2207 181.959 63.3287 183.743 62.6598 185.08L61.0989 188.648 60.6529 189.54C57.754 196.676 55.9701 203.589 55.9701 208.048 55.9701 220.313 68.0115 229.678 84.5126 232.8 85.6276 233.023 86.7425 233.246 87.8575 233.246L88.5264 233.246C91.6483 233.692 94.7701 234.807 97.446 236.145 100.345 234.584 103.69 233.469 106.812 233.023L107.926 232.8 109.041 232.577C109.487 232.577 109.71 232.354 110.156 232.354 126.211 229.678 138.253 220.313 138.253 208.048 138.253 203.366 136.469 196.23 133.347 188.871Z" stroke="#FFFFFF" stroke-width="1.33333" fill="none" fill-rule="evenodd" transform="matrix(1 0 0 1.00267 15 465)"/><path d="M65.1126 184.411 66.4506 181.736 66.6736 181.736C72.6943 181.067 76.4851 176.384 78.046 166.126 79.3839 155.646 77.154 148.287 72.9172 146.726L72.6943 146.726C72.4713 146.726 72.2483 146.503 72.0253 146.503L72.0253 146.503 71.3563 143.382C70.6874 140.26 70.2414 138.476 70.0184 137.807L69.7954 137.138C68.2345 132.455 67.5655 128.218 67.5655 124.874 67.5655 111.494 76.7081 102.798 97.446 102.798 118.184 102.798 127.326 111.494 127.326 124.874 127.326 128.218 126.434 132.901 124.874 137.807L124.874 138.03C124.651 138.476 124.651 139.368 124.205 140.706L123.759 142.267 122.867 146.726 122.644 146.726C122.421 146.726 122.198 146.949 121.975 146.949 117.738 148.51 115.285 155.869 116.846 166.349L116.846 166.795C117.292 169.694 117.961 172.147 118.853 174.154L75.1471 196.453C68.6805 199.798 61.7678 193.554 64.2207 186.864 64.8897 185.303 65.1126 184.411 65.1126 184.411ZM132.455 187.087 128.887 179.506 128.664 179.506 127.995 179.506 127.549 179.506 127.103 179.506 126.657 179.506 126.211 179.506 125.989 179.506 125.766 179.506C125.543 179.506 125.543 179.506 125.32 179.283L125.097 179.283 124.874 179.283C124.651 179.283 124.651 179.283 124.428 179.06L124.428 179.06 123.982 178.837C123.759 178.837 123.759 178.614 123.536 178.614L123.313 178.391 122.867 178.168C122.644 177.945 122.421 177.945 122.421 177.722L122.644 177.276C122.421 177.053 122.198 176.83 121.975 176.384L121.975 176.384 121.752 175.938 121.529 175.715C121.529 175.492 121.306 175.492 121.306 175.269 121.306 175.046 121.083 174.823 121.083 174.823L120.86 174.377C120.637 173.931 120.414 173.485 120.414 173.039L120.191 172.593C119.522 170.809 119.076 168.579 118.63 165.903 117.069 154.531 120.414 149.625 122.421 148.956 122.867 148.733 123.536 148.733 124.428 148.51 125.543 143.382 126.211 140.26 126.657 138.922L126.88 138.476 127.103 137.807C128.664 132.901 129.556 128.441 129.556 124.874 129.556 113.278 122.644 100.568 97.446 100.568 72.2483 100.568 65.3356 113.501 65.3356 124.874 65.3356 128.441 66.2276 133.347 68.0115 138.476L68.0115 138.699C68.0115 138.922 68.2345 139.368 68.2345 139.814L68.6805 142.044 70.0184 148.733C70.9103 148.733 71.5793 148.956 72.0253 149.179 74.0322 149.848 77.377 154.754 75.8161 166.126 74.2552 177.276 70.0184 179.729 65.7816 179.952L65.3356 179.952 65.1126 179.952C64.2207 181.959 63.3287 183.743 62.6598 185.08L61.0989 188.648 60.6529 189.54C57.754 196.676 55.9701 203.589 55.9701 208.048 55.9701 220.313 68.0115 229.678 84.5126 232.8 85.6276 233.023 86.7425 233.246 87.8575 233.246L88.5264 233.246C91.6483 233.692 94.7701 234.807 97.446 236.145 100.345 234.584 103.69 233.469 106.812 233.023L107.926 232.8 109.041 232.577C109.487 232.577 109.71 232.354 110.156 232.354 126.211 229.678 138.253 220.313 138.253 208.048 138.253 203.366 136.469 196.23 133.347 188.871L132.455 187.087Z" stroke="#FFFFFF" stroke-width="1.33333" fill="none" fill-rule="evenodd" transform="matrix(1 0 0 1.00267 15 465)"/><path d="M117.069 162.782 194 162.782 194 160.552 117.069 160.552Z" stroke="#FFFFFF" stroke-width="1.33333" fill="none" fill-rule="evenodd" transform="matrix(1 0 0 1.00267 15 465)"/><path d="M0 162.782 76.931 162.782 76.931 160.552 0 160.552Z" stroke="#FFFFFF" stroke-width="1.33333" fill="none" fill-rule="evenodd" transform="matrix(1 0 0 1.00267 15 465)"/><path d="M112.609 0C108.372 0 104.805 3.56782 104.805 7.8046 104.805 12.0414 108.372 15.6092 112.609 15.6092 116.846 15.6092 120.414 12.0414 120.414 7.8046 120.414 3.56782 116.846 0 112.609 0" stroke="#FFFFFF" stroke-width="1.33333" fill="none" fill-rule="evenodd" transform="matrix(1 0 0 1.00267 15 465)"/><path d="M82.5058 20.069C80.0529 20.069 78.046 22.0759 78.046 24.5287 78.046 26.9816 80.0529 28.9885 82.5058 28.9885 84.9586 28.9885 86.9655 26.9816 86.9655 24.5287 86.9655 22.0759 84.9586 20.069 82.5058 20.069" stroke="#FFFFFF" stroke-width="1.33333" fill="none" fill-rule="evenodd" transform="matrix(1 0 0 1.00267 15 465)"/><path d="M95.8851 151.632 98.1149 151.632 98.1149 0 95.8851 0Z" stroke="#FFFFFF" stroke-width="1.33333" fill="none" fill-rule="evenodd" transform="matrix(1 0 0 1.00267 15 465)"/></g></svg>